<svg width="221" height="51" viewBox="0 0 221 51" fill="none" xmlns="http://www.w3.org/2000/svg">
<circle cx="17.9518" cy="17.0837" r="10.4167" fill="white"/>
<path d="M23.5478 0.846414C21.8832 0.310352 20.0493 0 18.1872 0C12.8266 0 8.00202 2.42639 4.78564 6.26346L13.0805 13.2323L23.5478 0.846414Z" fill="#1A73E8"/>
<path d="M4.78572 6.26367C2.21826 9.31076 0.666504 13.2607 0.666504 17.521C0.666504 20.822 1.31542 23.5023 2.41576 25.9005L13.0524 13.2325L4.78572 6.26367Z" fill="#EA4335"/>
<path d="M18.2441 10.8344C21.9683 10.8344 24.9872 13.825 24.9872 17.5775C24.9872 19.2139 24.3665 20.7374 23.379 21.9224C23.379 21.9224 28.655 15.6025 33.8463 9.4801C31.7021 5.36089 28.006 2.25737 23.5483 0.84668L13.0527 13.2325C14.3224 11.7936 16.1563 10.8344 18.2441 10.8344Z" fill="#4285F4"/>
<path d="M18.2435 24.264C14.5192 24.264 11.5004 21.2734 11.5004 17.5209C11.5004 15.8845 12.0646 14.361 13.0521 13.2324L2.41553 25.9004C4.24942 29.935 7.29651 33.2078 10.4 37.2706L23.3784 21.8658C22.1088 23.3612 20.3031 24.264 18.2435 24.264Z" fill="#FBBC04"/>
<path d="M23.1536 41.5304C29.0221 32.3609 35.8216 28.2135 35.8216 17.5769C35.8216 14.6426 35.0881 11.9059 33.8467 9.47949L10.4292 37.2701C11.4167 38.5679 12.4324 40.035 13.4199 41.5586C17.003 47.0603 16.0155 50.3331 18.3009 50.3331C20.5862 50.3331 19.5705 47.0321 23.1536 41.5304Z" fill="#34A853"/>
<path d="M106.357 22.3815C106.357 16.7563 106.357 11.131 106.357 5.50934C106.357 5.44855 106.353 5.39133 106.357 5.33054C106.375 5.01941 106.457 4.93716 106.775 4.93359C107.18 4.93001 107.587 4.93716 107.991 4.93716C109.719 4.93716 111.446 4.93359 113.177 4.93359C113.559 4.93359 113.634 4.98365 113.767 5.31981C114.235 6.48921 114.704 7.66218 115.172 8.83157C115.92 10.6983 116.663 12.5686 117.414 14.4354C118.065 16.0589 118.727 17.6754 119.378 19.2989C119.986 20.8116 120.583 22.3279 121.187 23.8406C121.674 25.0565 122.171 26.2652 122.657 27.4811C123.133 28.6648 123.598 29.8485 124.07 31.0322C124.12 31.1538 124.17 31.2754 124.231 31.3898C124.313 31.54 124.384 31.5436 124.488 31.3934C124.549 31.3076 124.599 31.211 124.638 31.1109C125.157 29.8199 125.672 28.5253 126.19 27.2344C126.72 25.9076 127.245 24.5809 127.778 23.2577C128.304 21.956 128.837 20.6543 129.359 19.3526C129.706 18.4907 130.042 17.6253 130.385 16.7634C130.743 15.8694 131.111 14.9789 131.469 14.0813C131.905 12.987 132.334 11.8892 132.774 10.7949C133.053 10.1011 133.346 9.41091 133.625 8.71714C134.069 7.61569 134.505 6.50709 134.945 5.40206C134.977 5.32339 135.016 5.25186 135.045 5.17319C135.116 4.9765 135.256 4.92286 135.463 4.92643C137.595 4.93359 139.73 4.93001 141.861 4.93001C141.943 4.93001 142.029 4.93001 142.111 4.93716C142.261 4.95147 142.351 5.03372 142.358 5.19107C142.362 5.29835 142.365 5.40564 142.365 5.51292C142.365 16.5954 142.365 27.6778 142.365 38.7602C142.365 38.9641 142.372 39.1643 142.365 39.3682C142.351 39.7472 142.297 39.8045 141.922 39.808C141.539 39.8152 141.16 39.808 140.777 39.808C139.586 39.808 138.396 39.8116 137.201 39.8116C136.783 39.8116 136.729 39.7544 136.729 39.3396C136.729 33.0241 136.729 26.7087 136.733 20.3932C136.733 18.7732 136.708 17.1532 136.747 15.5332C136.747 15.5082 136.751 15.4868 136.747 15.4617C136.74 15.358 136.776 15.2185 136.64 15.1899C136.5 15.1613 136.486 15.3151 136.447 15.4045C136.075 16.3057 135.703 17.2105 135.334 18.1116C134.991 18.9485 134.651 19.7853 134.312 20.6221C134.033 21.3051 133.765 21.9917 133.482 22.6748C133.017 23.8084 132.538 24.9385 132.077 26.0721C131.351 27.8566 130.632 29.6482 129.909 31.4363C129.441 32.5914 128.965 33.7465 128.497 34.9016C128.075 35.9387 127.664 36.9757 127.242 38.0128C127.031 38.5314 126.805 39.0428 126.598 39.5613C126.509 39.783 126.34 39.8116 126.137 39.8116C125.339 39.808 124.538 39.808 123.741 39.808C123.358 39.808 122.979 39.7973 122.596 39.808C122.339 39.8152 122.189 39.7294 122.085 39.4719C121.452 37.8805 120.801 36.2963 120.154 34.7121C119.878 34.0397 119.589 33.3746 119.317 32.7023C118.884 31.633 118.462 30.5602 118.026 29.4909C117.525 28.2571 117.014 27.0234 116.51 25.7896C115.988 24.5129 115.469 23.2327 114.951 21.9524C114.411 20.6185 113.867 19.2846 113.323 17.9507C112.998 17.1461 112.673 16.3415 112.344 15.5404C112.304 15.4438 112.251 15.3473 112.183 15.265C112.104 15.1721 112.004 15.2007 111.975 15.3223C111.961 15.3902 111.961 15.4653 111.961 15.5368C111.964 16.7992 111.975 18.0616 111.975 19.3239C111.975 25.9863 111.975 32.645 111.975 39.3074C111.975 39.3896 111.975 39.4755 111.968 39.5577C111.95 39.7079 111.861 39.7902 111.707 39.8045C111.646 39.808 111.589 39.8045 111.528 39.8045C110.001 39.8045 108.478 39.8045 106.951 39.8045C106.368 39.8045 106.332 39.7687 106.332 39.2073C106.332 33.5963 106.332 27.9818 106.332 22.3708C106.361 22.3815 106.361 22.3815 106.357 22.3815Z" fill="white"/>
<path d="M69.1584 22.7415C69.137 21.2646 69.3158 19.9093 69.702 18.5897C70.3135 16.5083 71.4078 14.7131 73.1065 13.3399C74.047 12.5782 75.1055 12.0167 76.2857 11.6949C77.1296 11.466 77.9807 11.3086 78.8533 11.3408C79.7402 11.373 80.5913 11.5983 81.4246 11.8916C82.2757 12.192 83.091 12.5961 83.9636 12.8392C84.6002 13.0145 85.2188 13.0145 85.859 12.807C86.9103 12.4637 87.9152 11.9953 88.9738 11.6698C90.5115 11.2014 92.06 11.1406 93.6335 11.4553C94.6849 11.6663 95.6647 12.0453 96.5766 12.6032C97.3348 13.0681 97.9928 13.6474 98.565 14.3233C98.6579 14.4306 98.7545 14.5379 98.8403 14.6488C99.105 14.9813 99.0942 15.0243 98.7652 15.2639C98.6115 15.3747 98.4613 15.4927 98.3146 15.6107C97.3634 16.351 96.5909 17.245 96.0116 18.3036C95.7255 18.8257 95.511 19.38 95.3393 19.9522C95.1569 20.5637 95.0782 21.1859 95.0353 21.8153C94.9602 22.8989 95.1104 23.961 95.4466 24.9838C95.8471 26.1997 96.5373 27.2511 97.4564 28.1451C98.1323 28.8067 98.8797 29.3681 99.7379 29.7758C100.074 29.9367 100.078 30.0011 99.9597 30.3587C99.6342 31.3457 99.2051 32.2827 98.7438 33.2125C98.2932 34.1208 97.7425 34.9648 97.1631 35.798C96.6052 36.5991 96.0188 37.3787 95.35 38.0939C94.7135 38.7769 93.9982 39.367 93.1221 39.7246C92.414 40.0107 91.6809 40.0822 90.9156 39.9964C89.9608 39.8891 89.1061 39.4993 88.2442 39.1238C86.8496 38.5159 85.4155 38.3514 83.9171 38.6553C83.0445 38.8341 82.2399 39.181 81.4281 39.5279C80.7093 39.8355 79.9726 40.0572 79.1895 40.0822C78.3956 40.1073 77.6625 39.8998 76.983 39.485C76.1569 38.9808 75.4953 38.3013 74.8838 37.5682C74.0148 36.524 73.2066 35.4332 72.4985 34.2782C71.8262 33.1803 71.2719 32.0216 70.7963 30.8236C70.4673 29.9939 70.1955 29.1428 69.938 28.2917C69.8236 27.9162 69.7378 27.53 69.6591 27.1473C69.3551 25.6597 69.1227 24.1648 69.1584 22.7415Z" fill="white"/>
<path d="M172.062 31.2101C172.062 25.7529 172.062 20.2958 172.062 14.8386C172.062 14.1877 172.062 14.1806 172.706 14.177C174.315 14.1698 175.925 14.1734 177.53 14.1734C177.881 14.1734 177.938 14.2342 177.942 14.599C177.945 15.4108 177.945 16.219 177.938 17.0307C177.934 17.4098 177.959 17.7925 177.916 18.1751C177.909 18.2323 177.916 18.2931 177.924 18.3539C177.931 18.4147 177.956 18.4719 178.024 18.4827C178.074 18.4898 178.113 18.4576 178.142 18.4147C178.192 18.3325 178.245 18.2538 178.292 18.1715C178.832 17.2167 179.515 16.3835 180.37 15.6969C180.928 15.2498 181.536 14.8815 182.19 14.5811C182.658 14.3665 183.134 14.202 183.635 14.0769C184.801 13.7836 185.981 13.7049 187.179 13.8087C188.087 13.8873 188.97 14.0661 189.825 14.3737C190.601 14.6526 191.323 15.0388 191.999 15.518C193.773 16.7733 194.921 18.4934 195.693 20.4853C196.198 21.787 196.487 23.1424 196.641 24.5371C196.773 25.7243 196.834 26.9116 196.759 28.1025C196.695 29.1109 196.587 30.1158 196.387 31.1136C196.094 32.5619 195.633 33.9459 194.903 35.2261C193.945 36.9176 192.647 38.2766 190.887 39.1706C189.997 39.6212 189.06 39.9323 188.083 40.0861C187.082 40.2434 186.066 40.2577 185.054 40.1612C183.367 39.9967 181.832 39.4245 180.488 38.391C179.622 37.7258 178.914 36.9033 178.41 35.9235C178.392 35.8913 178.381 35.8591 178.367 35.8269C178.338 35.7733 178.299 35.7268 178.231 35.7339C178.145 35.7447 178.12 35.8162 178.11 35.8877C178.102 35.9449 178.095 36.0057 178.099 36.0665C178.142 36.7674 178.11 37.4719 178.113 38.1728C178.117 41.3771 178.113 44.5849 178.113 47.7891C178.113 47.8356 178.12 47.8856 178.117 47.9321C178.099 48.1717 178.031 48.2432 177.781 48.2468C177.448 48.254 177.112 48.2468 176.779 48.2468C175.385 48.2468 173.99 48.2468 172.595 48.2468C172.534 48.2468 172.477 48.2504 172.416 48.2468C172.134 48.2254 172.062 48.1503 172.055 47.8749C172.052 47.7783 172.059 47.6854 172.059 47.5888C172.066 42.1245 172.066 36.6673 172.062 31.2101ZM178.074 26.9545C178.099 27.752 178.127 28.5423 178.274 29.3362C178.51 30.6058 178.939 31.7859 179.669 32.8551C180.169 33.5882 180.81 34.1712 181.575 34.5967C182.523 35.1224 183.56 35.3191 184.64 35.269C185.534 35.2261 186.388 35.0151 187.168 34.5788C188.33 33.928 189.131 32.9338 189.682 31.743C190.068 30.9097 190.315 30.0264 190.444 29.1145C190.608 27.9523 190.658 26.7936 190.533 25.6242C190.394 24.3261 190.115 23.0673 189.489 21.9014C189.074 21.1254 188.538 20.4495 187.844 19.906C187.028 19.2658 186.099 18.9046 185.069 18.7866C183.506 18.6042 182.086 18.9404 180.845 19.9238C179.744 20.7964 179.068 21.9622 178.625 23.264C178.224 24.4548 178.063 25.6921 178.074 26.9545Z" fill="white"/>
<path d="M167.999 30.3488C167.999 33.3027 167.999 36.2566 167.999 39.2141C167.999 39.822 167.995 39.8184 167.387 39.8184C165.85 39.8148 164.312 39.8184 162.778 39.8148C162.695 39.8148 162.61 39.8184 162.527 39.8113C162.291 39.7862 162.209 39.7076 162.198 39.4715C162.188 39.257 162.195 39.0424 162.195 38.8278C162.195 37.9803 162.195 37.1363 162.198 36.2888C162.198 36.2173 162.209 36.1457 162.198 36.0742C162.18 35.9169 162.077 35.8775 161.952 35.9884C161.898 36.0349 161.859 36.0957 161.823 36.1565C160.807 37.8194 159.327 38.9029 157.531 39.5967C156.008 40.1868 154.431 40.3084 152.822 40.1474C151.513 40.0151 150.283 39.6253 149.149 38.9602C148.234 38.4237 147.475 37.7121 146.857 36.8431C146.127 35.8203 145.72 34.6688 145.58 33.4386C145.405 31.8794 145.619 30.3667 146.413 28.9827C146.953 28.0386 147.719 27.3055 148.63 26.7012C149.424 26.1755 150.29 25.8179 151.18 25.5246C152.006 25.2528 152.861 25.0955 153.723 24.9739C155.153 24.7701 156.598 24.7772 158.036 24.6699C159.202 24.5841 160.367 24.534 161.533 24.4732C161.594 24.4697 161.651 24.4661 161.712 24.4589C161.98 24.4267 162.041 24.3731 162.048 24.0977C162.059 23.7401 162.048 23.3825 162.048 23.0249C162.052 22.4885 162.03 21.9628 161.902 21.4299C161.583 20.096 160.757 19.227 159.505 18.7622C158.307 18.3187 157.067 18.2758 155.811 18.5297C155.282 18.637 154.781 18.8086 154.302 19.059C153.526 19.4631 152.954 20.0639 152.571 20.847C152.461 21.0723 152.371 21.3012 152.317 21.548C152.257 21.8269 152.149 21.9056 151.867 21.9056C150.247 21.9091 148.627 21.9056 147.007 21.902C146.685 21.902 146.642 21.8484 146.671 21.5194C146.785 20.1354 147.254 18.8837 148.04 17.7394C148.799 16.6379 149.796 15.8154 150.959 15.1717C151.86 14.6711 152.815 14.3242 153.812 14.0738C154.288 13.9558 154.767 13.8843 155.25 13.8092C156.612 13.6054 157.978 13.5946 159.345 13.7556C160.553 13.895 161.737 14.1561 162.867 14.6281C163.933 15.0716 164.909 15.6759 165.721 16.4842C166.736 17.4998 167.441 18.7121 167.774 20.139C167.959 20.94 168.002 21.7411 168.002 22.5493C168.002 25.1527 167.999 27.749 167.999 30.3488ZM162.048 29.6944C162.048 29.5513 162.048 29.4083 162.048 29.2653C162.048 29.1222 162.052 28.9792 162.048 28.8361C162.041 28.4106 161.984 28.3569 161.569 28.3855C161.022 28.4249 160.478 28.4785 159.931 28.5035C158.515 28.5643 157.102 28.6466 155.69 28.7753C154.796 28.8576 153.934 29.0686 153.154 29.5442C152.153 30.1521 151.592 31.0176 151.584 32.2084C151.577 33.1919 151.917 34.0108 152.682 34.6545C153.326 35.1945 154.08 35.477 154.889 35.5843C156.727 35.8275 158.447 35.4877 159.96 34.3684C160.904 33.6675 161.555 32.7448 161.866 31.6005C162.041 30.9818 162.08 30.3381 162.048 29.6944Z" fill="white"/>
<path d="M201.782 32.1579C202.594 32.1579 203.402 32.1579 204.214 32.1579C204.7 32.1579 204.729 32.1937 204.843 32.6478C205.183 33.996 205.977 34.9509 207.289 35.4587C207.973 35.7233 208.677 35.8663 209.41 35.8878C210.293 35.9164 211.173 35.895 212.031 35.6553C212.8 35.4408 213.501 35.1082 214.038 34.486C214.538 33.9066 214.696 33.2343 214.635 32.494C214.56 31.5929 214.063 30.9885 213.29 30.5665C212.743 30.2661 212.157 30.0837 211.556 29.9264C210.379 29.6224 209.192 29.3721 208.008 29.1182C207.136 28.9286 206.267 28.7355 205.408 28.4924C204.986 28.3708 204.572 28.217 204.168 28.0489C203.037 27.5804 201.993 26.9689 201.139 26.0749C200.398 25.3024 199.912 24.3905 199.647 23.3499C199.468 22.6489 199.418 21.9409 199.447 21.2257C199.501 19.7809 199.951 18.4756 200.813 17.3098C201.739 16.0581 202.97 15.2034 204.396 14.6313C206.807 13.6693 209.31 13.469 211.871 13.8159C212.725 13.9303 213.562 14.1163 214.367 14.406C216.466 15.1605 218.157 16.4301 219.212 18.4398C219.742 19.4447 220.006 20.5247 220.042 21.6619C220.049 21.8336 219.956 21.9015 219.81 21.9158C219.702 21.923 219.595 21.9087 219.488 21.9087C217.975 21.9087 216.462 21.9087 214.95 21.9123C214.492 21.9123 214.431 21.8622 214.352 21.3973C214.188 20.4532 213.727 19.6772 212.972 19.0979C212.228 18.5257 211.373 18.2145 210.433 18.1466C209.836 18.1037 209.238 18.093 208.648 18.1788C207.726 18.3111 206.878 18.6294 206.167 19.2588C205.151 20.1564 204.99 21.8765 205.92 22.8599C206.302 23.2676 206.767 23.543 207.275 23.7611C207.89 24.0222 208.534 24.1867 209.181 24.3476C210.097 24.5693 211.023 24.7303 211.935 24.9627C212.385 25.0771 212.843 25.1487 213.294 25.2524C214.828 25.61 216.337 26.0463 217.71 26.8402C218.533 27.3158 219.237 27.9345 219.763 28.7391C220.131 29.3041 220.364 29.9192 220.507 30.5808C220.696 31.4784 220.732 32.3725 220.596 33.2772C220.357 34.8722 219.656 36.2275 218.504 37.3612C217.381 38.4626 216.033 39.1707 214.56 39.6499C213.194 40.0933 211.778 40.2864 210.344 40.3329C209.242 40.3651 208.148 40.2864 207.068 40.1112C205.151 39.8001 203.356 39.1743 201.814 37.9441C200.734 37.0787 199.93 36.0094 199.404 34.7256C199.136 34.0711 198.968 33.3917 198.846 32.6979C198.832 32.6156 198.825 32.5334 198.821 32.4511C198.814 32.2759 198.903 32.1865 199.075 32.1722C199.157 32.165 199.243 32.165 199.325 32.165C200.137 32.1579 200.96 32.1579 201.782 32.1579Z" fill="white"/>
<path d="M84.5175 9.825C84.5461 8.61984 84.9359 7.51481 85.5153 6.47774C86.4379 4.83271 87.7647 3.61325 89.4633 2.78717C90.0892 2.48319 90.7507 2.30796 91.4159 2.13631C91.5768 2.0934 91.7449 2.07194 91.913 2.08982C92.1347 2.11128 92.2026 2.17922 92.2205 2.40452C92.292 3.21988 92.1776 4.01736 91.9702 4.80411C91.7807 5.52291 91.5053 6.20595 91.137 6.84608C90.082 8.68063 88.5657 9.96447 86.5309 10.6153C85.9981 10.787 85.4652 10.8549 84.9145 10.837C84.5855 10.8263 84.539 10.787 84.5211 10.4687C84.5068 10.2541 84.5175 10.0396 84.5175 9.825Z" fill="white"/>
</svg>
